<?xml version='1.0' encoding='UTF-8'?>
<svg xmlns="http://www.w3.org/2000/svg" version="1.1" width="11.796246648793566cm" height="24.530831099195712cm" viewBox="0 0 264.0 549.0">
  <g transform="translate(0, 0)"><metadata>
Created by potrace 1.16, written by Peter Selinger 2001-2019
</metadata>
<g transform="translate(0.000000,183.000000) scale(0.100000,-0.100000)" fill="#000000" stroke="none">
<path d="M1012 1285 c-4 -5 -9 -80 -12 -165 l-5 -155 -194 0 c-140 0 -195 -3 -198 -12 -9 -26 44 -37 217 -42 l175 -6 -3 -105 c-4 -167 20 -149 -205 -152 -158 -3 -192 -5 -192 -17 0 -23 50 -32 222 -38 l163 -6 2 -176 3 -176 275 -6 c151 -4 381 -10 510 -14 216 -7 236 -6 249 9 10 12 17 62 23 164 11 208 27 532 35 700 8 191 16 182 -175 182 -79 0 -208 4 -286 10 -202 14 -596 17 -604 5z m584 -35 c78 -5 207 -10 287 -10 117 0 147 -3 157 -15 10 -12 11 -47 6 -143 -3 -70 -11 -217 -16 -327 -20 -412 -27 -496 -37 -506 -8 -8 -68 -9 -195 -5 -100 3 -319 9 -485 12 l-303 6 -2 177 c0 97 0 183 1 191 2 8 8 73 13 144 8 94 7 135 -1 147 -7 12 -7 20 -1 24 6 4 10 65 10 143 0 75 3 146 6 157 5 19 12 20 212 18 114 -2 271 -7 348 -13z"/>
</g>
</g>
  <g transform="translate(0, 183.0)"><metadata>
Created by potrace 1.16, written by Peter Selinger 2001-2019
</metadata>
<g transform="translate(0.000000,183.000000) scale(0.100000,-0.100000)" fill="#000000" stroke="none">
<path d="M1012 1285 c-4 -5 -9 -80 -12 -165 l-5 -155 -194 0 c-140 0 -195 -3 -198 -12 -9 -26 44 -37 217 -42 l175 -6 -3 -105 c-4 -167 19 -149 -204 -152 -142 -2 -192 -6 -195 -15 -8 -24 52 -35 220 -40 l167 -6 0 -167 c0 -122 3 -170 13 -178 7 -6 126 -12 297 -16 157 -3 382 -9 500 -12 194 -5 217 -4 230 11 9 11 16 63 22 163 11 208 27 532 35 700 8 191 16 182 -173 182 -79 0 -210 4 -291 10 -222 14 -593 18 -601 5z m581 -35 c81 -6 212 -10 291 -10 116 0 146 -3 156 -15 10 -12 11 -47 6 -143 -3 -70 -11 -217 -16 -327 -20 -412 -27 -496 -37 -506 -8 -8 -66 -9 -190 -5 -98 3 -313 9 -478 12 -165 3 -303 9 -307 13 -11 10 -8 350 4 500 8 98 8 139 -1 152 -7 12 -7 20 -1 24 6 4 10 65 10 143 0 75 3 146 6 157 5 19 12 20 207 17 111 -1 268 -7 350 -12z"/>
</g>
</g>
  <g transform="translate(0, 366.0)"><metadata>
Created by potrace 1.16, written by Peter Selinger 2001-2019
</metadata>
<g transform="translate(0.000000,183.000000) scale(0.100000,-0.100000)" fill="#000000" stroke="none">
<path d="M1012 1285 c-4 -5 -9 -80 -12 -165 l-5 -155 -194 0 c-140 0 -195 -3 -198 -12 -9 -26 44 -37 217 -42 l175 -6 -3 -105 c-4 -167 19 -149 -204 -152 -142 -2 -192 -6 -195 -15 -8 -24 52 -35 220 -40 l167 -6 0 -168 c0 -150 2 -169 18 -178 9 -5 148 -12 307 -15 160 -3 382 -9 495 -12 185 -6 207 -5 220 11 9 11 16 62 22 163 11 208 27 532 35 700 8 192 17 182 -182 182 -84 0 -210 4 -281 10 -189 14 -594 18 -602 5z m582 -35 c71 -5 197 -10 281 -10 124 0 155 -3 165 -15 10 -12 11 -47 6 -143 -3 -70 -11 -217 -16 -327 -19 -391 -26 -491 -35 -504 -6 -11 -45 -13 -214 -6 -113 4 -331 10 -483 13 -152 4 -279 9 -282 12 -9 10 -5 361 6 499 8 98 8 139 -1 152 -7 12 -7 20 -1 24 6 4 10 65 10 143 0 75 3 146 6 157 5 19 12 20 217 18 117 -2 270 -7 341 -13z"/>
</g>
</g>
</svg>
